@startuml


class NestedObject
CloudPropertiesObject <|-- NestedObject

class APIObject
class Node
Node <|-- APIObject
class Host
Host <|-- APIObject
class NestedObject
class CloudPropertiesObject

class Cluster
Cluster <|--APIObject
class Region
Region <|--APIObject
class CloudProvider
CloudProvider <|--APIObject
class SecTunnel
SecTunnel <|--APIObject

note "API object(s) like \nNode, Host, Cluster, NestedObject, \nCloudProvider, SecTunnel and Region \nare used by a PF9 client." as N1

@enduml