@startuml

abstract class Request
abstract ClusterAddon
class ListClusterAddon
class DeployClusterAddon
class UpgradeClusterAddon
class UpdateClusterAddon
class RemoveClusterAddon
class BackgroundVerifyClusterAddon
class ReadOnlyBackgroundVerifyClusterAddon

ClusterAddon <|-- Request
ListClusterAddon <|-- ClusterAddon
DeployClusterAddon <|-- ClusterAddon
UpdateClusterAddon <|-- ClusterAddon
RemoveClusterAddon <|-- ClusterAddon
UpgradeClusterAddon <|-- ClusterAddon
BackgroundVerifyClusterAddon <|-- ClusterAddon
ReadOnlyBackgroundVerifyClusterAddon <|-- ClusterAddon

@enduml
