@startuml

abstract class Kubernetes
class K8sVMware
class K8sBaremetal
class K8sGCE
class K8sKVM


K8sVMware <|-- Kubernetes
K8sGCE <|-- Kubernetes
K8sBaremetal <|-- Kubernetes
K8sKVM <|-- Kubernetes


class Kubernetes {
abstract get_instance_type()
}

class K8sVMware {
get_instance_type()
}

class K8sBaremetal {
get_instance_type()
}

class K8sGCE {
get_instance_type()
}

class K8sKVM {
get_instance_type()
}

@enduml